
<region>
sample=../Samples/vowel_sustain/u/vowel_u_e3.wav
lokey=50
hikey=50
pitch_keycenter=52

<region>
sample=../Samples/vowel_sustain/u/vowel_u_f3.wav
lokey=51
hikey=51
pitch_keycenter=53

<region>
sample=../Samples/vowel_sustain/u/vowel_u_gb3.wav
tune=15
lokey=52
hikey=52
pitch_keycenter=54

<region>
sample=../Samples/vowel_sustain/u/vowel_u_g3.wav
tune=20
lokey=53
hikey=53
pitch_keycenter=55

<region>
sample=../Samples/vowel_sustain/u/vowel_u_ab3.wav
lokey=54
hikey=54
pitch_keycenter=56

<region>
sample=../Samples/vowel_sustain/u/vowel_u_a3.wav
lokey=55
hikey=55
pitch_keycenter=57

<region>
sample=../Samples/vowel_sustain/u/vowel_u_bb3.wav
lokey=56
hikey=56
pitch_keycenter=58

<region>
sample=../Samples/vowel_sustain/u/vowel_u_b3.wav
lokey=57
hikey=57
pitch_keycenter=59

<region>
sample=../Samples/vowel_sustain/u/vowel_u_c4.wav
tune=20
lokey=58
hikey=58

<region>
sample=../Samples/vowel_sustain/u/vowel_u_db4.wav
lokey=59
hikey=59
pitch_keycenter=61

<region>
sample=../Samples/vowel_sustain/u/vowel_u_d4.wav
tune=20
lokey=60
hikey=60
pitch_keycenter=62

<region>
sample=../Samples/vowel_sustain/u/vowel_u_eb4.wav
tune=10
lokey=61
hikey=61
pitch_keycenter=63

<region>
sample=../Samples/vowel_sustain/u/vowel_u_e4.wav
tune=10
lokey=62
hikey=62
pitch_keycenter=64

<region>
sample=../Samples/vowel_sustain/u/vowel_u_f4.wav
lokey=63
hikey=63
pitch_keycenter=65

<region>
sample=../Samples/vowel_sustain/u/vowel_u_gb4.wav
lokey=64
hikey=64
pitch_keycenter=66

<region>
sample=../Samples/vowel_sustain/u/vowel_u_g4.wav
tune=10
lokey=65
hikey=65
pitch_keycenter=67

<region>
sample=../Samples/vowel_sustain/u/vowel_u_ab4.wav
lokey=66
hikey=66
pitch_keycenter=68

<region>
sample=../Samples/vowel_sustain/u/vowel_u_a4.wav
lokey=67
hikey=67
pitch_keycenter=69

<region>
sample=../Samples/vowel_sustain/u/vowel_u_bb4.wav
lokey=68
hikey=68
pitch_keycenter=70

<region>
sample=../Samples/vowel_sustain/u/vowel_u_ab4.wav
lokey=69
hikey=69
pitch_keycenter=68

<region>
sample=../Samples/vowel_sustain/u/vowel_u_a4.wav
lokey=70
hikey=70
pitch_keycenter=69
